<svg width="550" height="550" viewBox="0 0 550 550" fill="none" xmlns="http://www.w3.org/2000/svg">
<path fill-rule="evenodd" clip-rule="evenodd" d="M6.14214 260.858C-1.66835 268.668 -1.66835 281.332 6.14214 289.142L260.701 543.701C268.511 551.511 281.174 551.511 288.985 543.701L543.543 289.142C551.354 281.332 551.354 268.668 543.543 260.858L288.985 6.29945C281.174 -1.51103 268.511 -1.51103 260.701 6.29945L210.107 56.8934L267.229 114.016C269.708 113.353 272.313 113 275 113C291.569 113 305 126.431 305 143C305 145.687 304.647 148.292 303.984 150.771L399.229 246.016C401.708 245.353 404.313 245 407 245C423.569 245 437 258.431 437 275C437 291.569 423.569 305 407 305C390.431 305 377 291.569 377 275C377 272.313 377.353 269.708 378.016 267.229L290.863 180.077L290.102 381.073C299.013 386.274 305 395.938 305 407C305 423.569 291.569 437 275 437C258.431 437 245 423.569 245 407C245 395.854 251.079 386.127 260.102 380.955L260.903 169.489C251.441 164.442 245 154.473 245 143C245 140.313 245.353 137.708 246.016 135.229L188.893 78.1066L6.14214 260.858Z" fill="black"/>
</svg>
