<svg width="512" height="153" viewBox="0 0 512 153" fill="none" xmlns="http://www.w3.org/2000/svg">
<circle cx="248.25" cy="73.25" r="24.5" stroke="white" stroke-width="10.5"/>
<circle cx="481.75" cy="73.25" r="24.5" stroke="white" stroke-width="10.5"/>
<path d="M322.5 44V97H353" stroke="white" stroke-width="10.5"/>
<path d="M394 44V97H424.5" stroke="white" stroke-width="10.5"/>
<path fill-rule="evenodd" clip-rule="evenodd" d="M75.1203 55.2727L92.643 102H103.857L82.107 44H67.9967L47.2824 102H58.4319L61.9141 92.25H82.6851L78.7484 81.75H65.6641L75.1203 55.2727Z" fill="white"/>
<path fill-rule="evenodd" clip-rule="evenodd" d="M142.25 102V44H149.5H152.75H167C177.493 44 186 52.5066 186 63C186 73.4934 177.493 82 167 82H152.75V102H142.25ZM152.75 71.5H167C171.694 71.5 175.5 67.6944 175.5 63C175.5 58.3056 171.694 54.5 167 54.5H152.75V71.5Z" fill="white"/>
<circle cx="126" cy="22" r="8" fill="white"/>
<path fill-rule="evenodd" clip-rule="evenodd" d="M129.922 123.268C116.908 138.121 97.7992 147.5 76.5 147.5C37.2878 147.5 5.5 115.712 5.5 76.5C5.5 37.2878 37.2878 5.5 76.5 5.5C95.7502 5.5 113.211 13.161 126 25.6005V22H130.184C116.374 8.3952 97.4174 0 76.5 0C34.2502 0 0 34.2502 0 76.5C0 118.75 34.2502 153 76.5 153C97.6231 153 116.747 144.439 130.59 130.597C132.974 127.88 134.344 125.745 135.015 124.142C135.786 122.304 135.58 121.327 135.192 120.898C134.804 120.469 133.991 120.324 132.917 120.726C132.342 120.941 131.738 121.302 131.175 121.798C130.764 122.293 130.347 122.783 129.923 123.267L129.922 123.268L129.922 123.268Z" fill="white"/>
</svg>
