<svg width="744" height="226" viewBox="0 0 744 226" fill="none" xmlns="http://www.w3.org/2000/svg">
<g clip-path="url(#clip0)">
<path fill-rule="evenodd" clip-rule="evenodd" d="M0 155.375L14.1093 56.5L70.5464 0L141.093 70.625L98.765 113L155.202 169.5L70.5464 226L0 155.375Z" fill="#00D1B2"/>
</g>
<path d="M236.363 125.08V163.96C236.363 164.813 236.789 165.347 237.643 165.56C241.803 166.2 246.176 166.52 250.763 166.52C260.789 166.52 268.149 164.653 272.843 160.92C277.536 157.187 279.883 151.48 279.883 143.8C279.883 136.867 277.056 131.8 271.403 128.6C265.749 125.293 256.203 123.64 242.763 123.64H237.803C236.843 123.64 236.363 124.12 236.363 125.08ZM236.363 77.24V108.44C236.363 109.4 236.843 109.88 237.803 109.88H242.763C254.496 109.88 262.923 108.387 268.043 105.4C273.269 102.413 275.883 97.88 275.883 91.8C275.883 85.9333 273.803 81.6133 269.643 78.84C265.483 76.0667 258.656 74.68 249.163 74.68C245.109 74.68 241.269 75 237.643 75.64C236.789 75.8533 236.363 76.3867 236.363 77.24ZM227.883 179.48C225.216 179.16 223.029 178.04 221.323 176.12C219.616 174.093 218.763 171.747 218.763 169.08V72.12C218.763 69.4533 219.616 67.16 221.323 65.24C223.029 63.2133 225.216 62.04 227.883 61.72C234.283 60.9733 241.376 60.6 249.163 60.6C277.963 60.6 292.363 70.2 292.363 89.4C292.363 95.8 290.176 101.453 285.803 106.36C281.429 111.16 275.669 114.253 268.523 115.64C268.416 115.64 268.363 115.693 268.363 115.8C268.363 115.907 268.416 115.96 268.523 115.96C277.483 117.347 284.469 120.653 289.483 125.88C294.603 131.107 297.163 137.613 297.163 145.4C297.163 168.867 281.696 180.6 250.763 180.6C242.336 180.6 234.709 180.227 227.883 179.48ZM397.863 138.2C397.863 166.467 383.996 180.6 356.263 180.6C328.529 180.6 314.663 166.467 314.663 138.2V71.16C314.663 68.7067 315.516 66.6267 317.223 64.92C319.036 63.1067 321.169 62.2 323.623 62.2C326.076 62.2 328.156 63.1067 329.863 64.92C331.676 66.6267 332.583 68.7067 332.583 71.16V139C332.583 148.387 334.503 155.213 338.343 159.48C342.289 163.747 348.369 165.88 356.583 165.88C364.796 165.88 370.823 163.747 374.663 159.48C378.609 155.213 380.583 148.387 380.583 139V70.84C380.583 68.4933 381.436 66.4667 383.143 64.76C384.849 63.0533 386.876 62.2 389.223 62.2C391.569 62.2 393.596 63.0533 395.303 64.76C397.009 66.4667 397.863 68.4933 397.863 70.84V138.2ZM431.633 179C429.179 179 427.046 178.093 425.233 176.28C423.419 174.467 422.513 172.333 422.513 169.88V71.32C422.513 68.8667 423.419 66.7333 425.233 64.92C427.046 63.1067 429.179 62.2 431.633 62.2H431.793C434.246 62.2 436.379 63.1067 438.193 64.92C440.006 66.7333 440.913 68.8667 440.913 71.32V162.84C440.913 163.8 441.339 164.28 442.193 164.28H487.153C489.179 164.28 490.886 165.027 492.273 166.52C493.766 167.907 494.513 169.613 494.513 171.64C494.513 173.667 493.766 175.427 492.273 176.92C490.886 178.307 489.179 179 487.153 179H431.633ZM531.132 176.6C529.532 178.2 527.558 179 525.212 179C522.865 179 520.838 178.2 519.132 176.6C517.532 174.893 516.732 172.867 516.732 170.52V70.68C516.732 68.3333 517.532 66.36 519.132 64.76C520.838 63.0533 522.865 62.2 525.212 62.2C530.865 62.2 534.972 64.7067 537.532 69.72L569.052 130.84C569.052 130.947 569.105 131 569.212 131C569.318 131 569.372 130.947 569.372 130.84L600.732 70.04C603.398 64.8133 607.665 62.2 613.532 62.2C615.985 62.2 618.065 63.0533 619.772 64.76C621.478 66.4667 622.332 68.5467 622.332 71V170.2C622.332 172.653 621.478 174.733 619.772 176.44C618.065 178.147 615.985 179 613.532 179C611.078 179 608.998 178.147 607.292 176.44C605.585 174.733 604.732 172.653 604.732 170.2V92.76C604.732 92.6533 604.678 92.6 604.572 92.6C604.465 92.6 604.412 92.6533 604.412 92.76L580.732 139.8C578.278 144.6 574.438 147 569.212 147C563.985 147 560.145 144.6 557.692 139.8L534.012 92.76C534.012 92.6533 533.958 92.6 533.852 92.6C533.745 92.6 533.692 92.6533 533.692 92.76V170.52C533.692 172.867 532.838 174.893 531.132 176.6ZM687.487 78.36L670.687 132.92C670.58 133.24 670.633 133.56 670.847 133.88C671.06 134.093 671.327 134.2 671.647 134.2H703.647C703.967 134.2 704.233 134.093 704.447 133.88C704.66 133.56 704.713 133.24 704.607 132.92L687.807 78.36C687.807 78.2533 687.753 78.2 687.647 78.2C687.54 78.2 687.487 78.2533 687.487 78.36ZM647.487 179C645.247 179 643.433 178.093 642.047 176.28C640.767 174.467 640.5 172.493 641.247 170.36L675.487 70.84C676.34 68.28 677.887 66.2 680.127 64.6C682.367 63 684.82 62.2 687.487 62.2H688.447C691.22 62.2 693.673 63 695.807 64.6C698.047 66.2 699.593 68.28 700.447 70.84L734.687 170.36C735.433 172.493 735.113 174.467 733.727 176.28C732.447 178.093 730.687 179 728.447 179H727.807C725.14 179 722.687 178.2 720.447 176.6C718.313 175 716.82 172.92 715.967 170.36L709.567 149.24C709.46 148.387 708.873 147.96 707.807 147.96H667.487C666.527 147.96 665.94 148.387 665.727 149.24L659.327 170.36C658.58 172.92 657.087 175 654.847 176.6C652.713 178.2 650.26 179 647.487 179Z" fill="white"/>
<defs>
<clipPath id="clip0">
<rect width="155.202" height="226" fill="white"/>
</clipPath>
</defs>
</svg>
