<svg width="618" height="138" viewBox="0 0 618 138" fill="none" xmlns="http://www.w3.org/2000/svg">
<path d="M191.667 137.951V2.75338H199V24.02C199.866 23.0771 200.666 22.0754 201.394 21.0222C207.518 8.31498 220.437 0.295247 234.54 0.453647C251.26 -0.0450195 264.847 6.14432 272.832 21.0222C277.913 30.265 280.709 40.5892 280.986 51.1328C281.264 61.6764 279.015 72.1334 274.428 81.6307C266.989 98.3038 248.614 106.593 228.943 103.549C222.822 103.028 216.928 100.983 211.8 97.5988C206.672 94.215 202.473 89.6006 199.587 84.1769V137.945L191.667 137.951ZM199 50.5785L200.643 66.4537C203.541 84.523 214.224 95.2003 230.997 97.2067C238.873 98.5017 246.955 97.025 253.865 93.0283C260.775 89.0316 266.085 82.7622 268.89 75.2889C275.413 59.7422 274.932 42.1422 267.599 26.9592C264.605 20.26 259.513 14.7171 253.09 11.1683C246.668 7.6195 239.265 6.25756 232 7.28832C225.181 7.78441 218.685 10.392 213.416 14.7487C208.147 19.1055 204.365 24.9953 202.596 31.5998C201.034 37.8498 199.834 44.1846 199 50.5726V50.5785ZM430.722 68.9529C429.609 78.472 425.078 87.2632 417.97 93.6915C410.861 100.12 401.66 103.748 392.078 103.901C361.325 105.449 346.893 85.0275 344.599 61.4611C343.004 48.6633 345.081 35.6758 350.589 24.0142C354.422 16.0143 360.703 9.44255 368.521 5.25086C376.339 1.05918 385.288 -0.534724 394.072 0.700046C402.424 1.40988 410.34 4.72805 416.701 10.185C423.063 15.6419 427.547 22.9612 429.519 31.107C431.081 38.5274 432.231 46.0287 432.963 53.5763H352.196C350.7 74.9427 362.181 92.1203 378.455 96.2622C398.725 101.249 416.049 92.4665 422.338 73.1945C423.734 68.2489 426.281 67.5507 430.774 68.9529H430.722ZM352.138 46.7358H424.38C423.928 23.9731 409.754 7.42911 390.529 7.24138C368.822 6.88938 353.082 22.7704 352.138 46.7358V46.7358ZM445.652 69.4515H452.733C452.993 74.6683 454.688 79.7123 457.629 84.0284C460.571 88.3446 464.646 91.7658 469.406 93.9155C475.384 96.6055 481.891 97.9128 488.443 97.7401C494.996 97.5675 501.425 95.9193 507.252 92.9182C510.429 91.4879 513.09 89.117 514.875 86.1257C516.661 83.1345 517.486 79.6672 517.237 76.1923C517.42 72.8411 516.505 69.5216 514.631 66.7373C512.757 63.9529 510.027 61.8555 506.853 60.763C499.062 57.8649 490.779 56.2691 482.841 53.723C474.581 51.3714 466.505 48.4185 458.676 44.8878C445.887 38.6456 445.095 14.3342 459.574 6.63712C466.988 2.45366 475.331 0.193219 483.843 0.0620497C492.354 -0.0691194 500.763 1.93315 508.302 5.88618C517.654 11.0489 522.822 21.4739 521.285 32.0515H515.213C515.213 31.7582 514.662 31.5 514.662 31.2008C513.911 11.8408 497.637 5.78644 480.166 7.48778C474.886 8.07444 469.882 9.67018 465.188 12.0286C462.367 13.317 460.016 15.4505 458.46 18.1338C456.905 20.8171 456.222 23.9176 456.506 27.0062C456.511 30.0971 457.475 33.1103 459.263 35.6315C461.051 38.1528 463.576 40.0583 466.491 41.0862C474.117 43.8846 482.213 45.6798 490.104 47.8739L509.171 52.8606C513.504 54.283 517.304 56.9874 520.067 60.6161C522.831 64.2448 524.428 68.6269 524.647 73.1827C526.172 83.42 520.951 93.4814 511.717 98.1454C495.044 107.579 467.582 105.086 455.35 93.1587C449.09 86.8638 445.599 78.3161 445.67 69.4457L445.652 69.4515ZM614.495 32.0574H607.854C607.854 31.1598 607.502 30.2974 607.402 29.611C607.296 24.6329 605.482 19.8427 602.264 16.0434C599.045 12.244 594.619 9.66663 589.726 8.74325C580.496 6.09604 570.651 6.57037 561.718 10.0926C558.186 11.1034 555.077 13.2303 552.854 16.1553C550.631 19.0802 549.415 22.6461 549.387 26.3198C549.26 29.9269 550.383 33.4671 552.566 36.3416C554.749 39.2161 557.858 41.2485 561.366 42.0952L591.721 49.8862C595.003 50.6735 598.236 51.6569 601.401 52.8312C611.081 56.3512 617.651 65.339 617.945 75.6115C618.09 80.6397 616.71 85.5943 613.988 89.8243C611.266 94.0543 607.328 97.362 602.691 99.3129C595.646 102.513 588.01 104.206 580.272 104.284C572.535 104.362 564.866 102.823 557.758 99.7646C551.913 97.2439 546.98 92.9929 543.623 87.5838C540.267 82.1747 538.648 75.8671 538.985 69.5102H545.474C547.914 81.2729 555.992 91.0702 567.075 95.7048C578.157 100.34 590.811 99.2014 600.89 92.6776C603.914 91.1051 606.424 88.6989 608.123 85.744C609.822 82.7891 610.639 79.4092 610.476 76.0046C610.627 72.651 609.679 69.3399 607.778 66.5734C605.876 63.807 603.125 61.7361 599.94 60.675C592.149 57.7768 583.865 56.2339 575.927 53.635C567.622 51.3196 559.496 48.4 551.616 44.8995C539.132 38.7571 538.134 14.6451 552.367 6.95391C559.872 2.59488 568.379 0.253096 577.057 0.156458C585.736 0.0598194 594.293 2.21162 601.893 6.40245C606.241 8.99701 609.74 12.7997 611.965 17.3474C614.19 21.8951 615.044 26.9916 614.424 32.0163L614.495 32.0574ZM179.599 101.46C176.985 102.449 174.099 102.446 171.487 101.453C168.875 100.459 166.716 98.5442 165.419 96.0686L139.606 60.3699L135.863 55.3833L105.908 96.1214C104.687 98.4906 102.645 100.334 100.164 101.308C97.6832 102.282 94.9326 102.319 92.4261 101.413L131.017 49.6398L95.113 2.85898C100.44 0.934713 106.377 3.02325 109.34 7.84565L136.092 43.9843L163.002 7.98645C164.232 5.65788 166.275 3.86261 168.742 2.94209C171.21 2.02157 173.929 2.04001 176.384 2.99392L162.451 21.4798L143.578 46.0435C143.054 46.5113 142.635 47.0844 142.348 47.7254C142.061 48.3664 141.912 49.0607 141.912 49.763C141.912 50.4653 142.061 51.1596 142.348 51.8006C142.635 52.4415 143.054 53.0147 143.578 53.4824L179.523 101.46H179.599ZM343.455 2.36032V9.40031C338.405 9.06911 333.342 9.80037 328.593 11.5469C323.843 13.2934 319.513 16.0164 315.881 19.5401C312.249 23.0637 309.396 27.3098 307.506 32.0043C305.617 36.6987 304.733 41.7372 304.911 46.7944C304.911 63.2368 304.911 79.6791 304.911 96.1214V101.712H297.771V2.80031H304.811V23.0696C313.447 8.28565 326.776 2.80032 343.502 2.40138L343.455 2.36032ZM0.0202344 48.9945L3.16477 33.4654C11.8005 2.75925 47.0005 -10.0183 71.2181 9.00139C85.3978 20.1363 88.9354 35.9118 88.2432 53.6878H8.35677C7.0661 85.4382 29.9754 104.61 59.2794 94.8249C68.936 91.3049 76.2048 83.2792 78.5984 73.3059C80.1472 68.3192 82.705 67.4627 87.3866 68.9059C86.6058 74.9845 84.457 80.807 81.1017 85.9355C77.7464 91.064 73.272 95.3649 68.0149 98.515C59.3296 103.265 49.3649 105.147 39.5455 103.892C29.7261 102.637 20.555 98.3093 13.3434 91.5278C6.20957 83.5081 1.90343 73.3705 1.0645 62.6638C1.0645 60.9038 0.477834 59.2611 0.0671672 57.6771C0.028056 54.7164 0.00849915 51.8222 0.00849915 48.9945H0.0202344ZM8.4565 46.8473H80.6986C80.2469 23.8323 65.721 7.50538 46.3493 7.35285C24.7834 7.05952 9.3541 23.0286 8.4037 46.7475L8.4565 46.8473Z" fill="white"/>
</svg>
