<svg width="653" height="217" viewBox="0 0 653 217" fill="none" xmlns="http://www.w3.org/2000/svg">
<path d="M32.3 175L54 36.4C54.3 34.2 56.4 32.7 58.6 33.1C59.8 33.3 60.9 34.1 61.5 35.2L83.9 77L92.8 60C93.8 58 96.2 57.3 98.2 58.3C98.9 58.7 99.5 59.3 99.9 60L160.3 175H32.3Z" fill="#FFA000"/>
<path d="M107.2 121L83.9 76.9L32.3 175L107.2 121Z" fill="#F57C00"/>
<path d="M160.3 175L143.7 72.3C143.3 70.1 141.3 68.7 139.1 69C138.3 69.1 137.5 69.5 136.9 70.1L32.3 175L90.2 207.5C93.8 209.5 98.3 209.5 101.9 207.5L160.3 175Z" fill="#FFCA28"/>
<path d="M143.8 72.4C143.4 70.2 141.4 68.8 139.2 69.1C138.4 69.2 137.6 69.6 137 70.2L116.2 91L99.9 59.9C98.9 57.9 96.5 57.2 94.5 58.2C93.8 58.6 93.2 59.2 92.8 59.9L83.9 76.9L61.5 35.1C60.5 33.2 58 32.4 56.1 33.5C55 34.1 54.2 35.2 54 36.4L32.3 175H32.2L32.3 175.1L32.9 175.4L116.2 92L137 71.2C138.6 69.6 141.1 69.6 142.7 71.2C143.3 71.8 143.7 72.5 143.8 73.4L160.2 175.1L160.4 175L143.8 72.4ZM32.5 174.8L54 37.4C54.3 35.2 56.4 33.7 58.6 34.1C59.8 34.3 60.9 35.1 61.5 36.2L83.9 78L92.8 61C93.8 59 96.2 58.3 98.2 59.3C98.9 59.7 99.5 60.3 99.9 61L115.9 91.4L32.5 174.8Z" fill="white" fill-opacity="0.2"/>
<path opacity="0.2" d="M101.9 206.5C98.3 208.5 93.8 208.5 90.2 206.5L32.4 174.1L32.3 175L90.2 207.5C93.8 209.5 98.3 209.5 101.9 207.5L160.3 175L160.2 174.1L101.9 206.5Z" fill="#A52714"/>
<path d="M143.8 72.4C143.4 70.2 141.4 68.8 139.2 69.1C138.4 69.2 137.6 69.6 137 70.2L116.2 91L99.9 59.9C98.9 57.9 96.5 57.2 94.5 58.2C93.8 58.6 93.2 59.2 92.8 59.9L83.9 76.9L61.5 35.1C60.5 33.2 58 32.4 56.1 33.5C55 34.1 54.2 35.2 54 36.4L32.3 175L90.2 207.5C93.8 209.5 98.3 209.5 101.9 207.5L160.3 175L143.8 72.4Z" fill="url(#paint0_linear)"/>
<path d="M224.3 171H212.5V79.4H266V90.7H224.3V120.8H262V131.8H224.4V171H224.3Z" fill="white"/>
<path d="M286.3 92.6C284.7 94.2 282.7 95 280.4 95C278.1 95 276.1 94.2 274.5 92.6C272.9 91 272.1 89 272.1 86.7C272.1 84.4 272.9 82.4 274.5 80.8C276.1 79.2 278.1 78.4 280.4 78.4C282.7 78.4 284.7 79.2 286.3 80.8C287.9 82.4 288.7 84.4 288.7 86.7C288.7 89 287.9 90.9 286.3 92.6ZM286.3 171H274.5V108.3H286.3V171Z" fill="white"/>
<path d="M310.9 171H299.1V108.3H310.4V118.5H310.9C312.1 115.1 314.5 112.3 318.3 110.1C322 107.9 325.6 106.8 329.1 106.8C332.6 106.8 335.5 107.3 337.9 108.3L333.4 119.3C331.9 118.7 329.8 118.4 327.1 118.4C322.8 118.4 319.1 120.1 315.8 123.5C312.5 126.9 310.9 131.3 310.9 136.7V171Z" fill="white"/>
<path d="M366.3 173.1C356.8 173.1 349.1 169.9 343.2 163.6C337.3 157.3 334.3 149.3 334.3 139.7C334.3 130.6 337.2 122.7 342.9 116.1C348.7 109.5 356 106.2 365 106.2C374.3 106.2 381.7 109.2 387.3 115.3C392.9 121.4 395.7 129.5 395.7 139.6L395.6 141.8H346.1C346.4 148.1 348.6 153.1 352.4 156.8C356.3 160.5 360.8 162.3 366 162.3C374.4 162.3 380.2 158.7 383.2 151.5L393.7 155.9C391.7 160.8 388.3 164.8 383.6 168.1C378.9 171.4 373.1 173.1 366.3 173.1ZM383.2 132.1C382.9 128.5 381.3 125.1 378.3 121.9C375.3 118.7 370.8 117 364.8 117C360.4 117 356.7 118.4 353.5 121.1C350.3 123.8 348.1 127.5 346.9 132.1H383.2Z" fill="white"/>
<path d="M437.1 173.1C432.3 173.1 428 172.1 424.2 170C420.4 168 417.6 165.4 415.7 162.3H415.2V171H403.9V79.4H415.7V108.3L415.2 117H415.7C417.6 113.9 420.4 111.4 424.2 109.3C428 107.3 432.3 106.2 437.1 106.2C445.2 106.2 452.2 109.4 458.1 115.8C464 122.2 466.9 130.1 466.9 139.6C466.9 149.1 464 157 458.1 163.4C452.2 169.9 445.2 173.1 437.1 173.1ZM435.1 162.3C440.6 162.3 445.3 160.2 449.2 156.1C453.1 152 455.1 146.5 455.1 139.7C455.1 132.9 453.1 127.4 449.2 123.3C445.3 119.2 440.6 117.1 435.1 117.1C429.6 117.1 424.8 119.1 421 123.2C417.2 127.3 415.2 132.8 415.2 139.7C415.2 146.6 417.1 152.1 421 156.2C424.9 160.3 429.6 162.3 435.1 162.3Z" fill="white"/>
<path d="M496.2 173.1C489.5 173.1 484 171.2 479.5 167.3C475 163.5 472.8 158.4 472.8 152.1C472.8 145.3 475.4 139.9 480.7 136C486 132.1 492.5 130.2 500.3 130.2C507.2 130.2 512.9 131.5 517.3 134V132.2C517.3 127.6 515.7 123.9 512.6 121.1C509.4 118.3 505.6 116.9 501 116.9C497.6 116.9 494.5 117.7 491.7 119.3C488.9 120.9 487 123.1 486 126L475.2 121.4C476.7 117.6 479.5 114.2 483.8 111C488.1 107.8 493.7 106.2 500.7 106.2C508.7 106.2 515.4 108.5 520.7 113.2C526 117.9 528.6 124.5 528.6 133V171H517.3V162.3H516.8C512.1 169.5 505.2 173.1 496.2 173.1ZM498.1 162.3C503 162.3 507.4 160.5 511.3 156.9C515.3 153.3 517.3 149 517.3 144C514 141.3 509 139.9 502.3 139.9C496.6 139.9 492.3 141.1 489.4 143.6C486.5 146.1 485 149 485 152.3C485 155.4 486.3 157.8 489 159.6C491.7 161.4 494.7 162.3 498.1 162.3Z" fill="white"/>
<path d="M561.3 173.1C554.3 173.1 548.5 171.4 544 168C539.4 164.6 536.1 160.3 534 155.2L544.5 150.8C547.8 158.7 553.5 162.6 561.5 162.6C565.2 162.6 568.2 161.8 570.5 160.2C572.8 158.6 574 156.4 574 153.8C574 149.7 571.1 146.9 565.4 145.5L552.7 142.4C548.7 141.4 544.9 139.4 541.3 136.6C537.7 133.7 535.9 129.9 535.9 125C535.9 119.5 538.4 115 543.3 111.5C548.2 108 554 106.3 560.8 106.3C566.3 106.3 571.3 107.6 575.6 110.1C580 112.6 583.1 116.2 584.9 120.9L574.7 125.1C572.4 119.6 567.6 116.8 560.4 116.8C556.9 116.8 554 117.5 551.6 119C549.2 120.5 548 122.4 548 124.9C548 128.5 550.8 130.9 556.3 132.2L568.7 135.1C574.6 136.5 578.9 138.8 581.8 142.1C584.6 145.4 586 149.2 586 153.4C586 159 583.7 163.7 579.1 167.5C574.5 171.3 568.6 173.1 561.3 173.1Z" fill="white"/>
<path d="M622.8 173.1C613.3 173.1 605.6 169.9 599.7 163.6C593.8 157.3 590.8 149.3 590.8 139.7C590.8 130.6 593.7 122.7 599.4 116.1C605.2 109.5 612.5 106.2 621.5 106.2C630.8 106.2 638.2 109.2 643.8 115.3C649.4 121.4 652.2 129.5 652.2 139.6L652.1 141.8H602.6C602.9 148.1 605.1 153.1 608.9 156.8C612.8 160.5 617.3 162.3 622.5 162.3C630.9 162.3 636.7 158.7 639.7 151.5L650.2 155.9C648.2 160.8 644.8 164.8 640.1 168.1C635.4 171.4 629.6 173.1 622.8 173.1ZM639.7 132.1C639.4 128.5 637.8 125.1 634.8 121.9C631.8 118.7 627.3 117 621.3 117C616.9 117 613.2 118.4 610 121.1C606.8 123.8 604.6 127.5 603.4 132.1H639.7Z" fill="white"/>
<path opacity="0.54" d="M211.7 44.2V1.2H227.2C230.6 1.2 233.5 2.3 235.9 4.5C238.4 6.7 239.6 9.5 239.6 12.9C239.6 14.9 239.1 16.7 238 18.3C236.9 19.9 235.5 21 233.8 21.8V22C235.9 22.7 237.7 24 239 25.7C240.4 27.5 241 29.5 241 31.8C241 35.3 239.7 38.2 237.1 40.6C234.5 42.9 231.5 44.1 228 44.1H211.7V44.2ZM217.2 19.7H227.2C229.3 19.7 231 19 232.2 17.6C233.5 16.2 234.1 14.7 234.1 13.1C234.1 11.5 233.5 10 232.3 8.6C231.1 7.2 229.5 6.6 227.5 6.6H217.2V19.7ZM217.2 39H228.3C230.4 39 232.1 38.3 233.5 36.8C234.8 35.3 235.5 33.7 235.5 31.9C235.5 30.1 234.8 28.5 233.5 27.1C232.1 25.6 230.4 24.9 228.2 24.9H217.3V39H217.2Z" fill="white"/>
<path opacity="0.54" d="M273.5 44.2H268.2V40.1H268C267.2 41.5 265.9 42.7 264.2 43.7C262.5 44.7 260.7 45.2 258.7 45.2C255 45.2 252.2 44.1 250.3 41.8C248.4 39.6 247.5 36.6 247.5 32.8V14.8H253V31.9C253 37.4 255.4 40.1 260.3 40.1C262.6 40.1 264.4 39.2 265.9 37.3C267.3 35.5 268.1 33.3 268.1 30.9V14.8H273.6V44.2H273.5Z" fill="white"/>
<path opacity="0.54" d="M286.9 7.5C286.1 8.3 285.2 8.6 284.1 8.6C283 8.6 282.1 8.2 281.3 7.5C280.5 6.7 280.2 5.8 280.2 4.7C280.2 3.6 280.6 2.7 281.3 1.9C282.1 1.1 283 0.800003 284.1 0.800003C285.2 0.800003 286.1 1.2 286.9 1.9C287.7 2.7 288 3.6 288 4.7C288 5.8 287.6 6.7 286.9 7.5ZM286.9 44.2H281.4V14.8H286.9V44.2Z" fill="white"/>
<path opacity="0.54" d="M300.2 44.2H294.7V1.2H300.2V44.2Z" fill="white"/>
<path opacity="0.54" d="M319.9 44.7C316.8 44.7 314.5 43.9 312.9 42.2C311.3 40.6 310.5 38.2 310.5 35.2V19.9H305.3V14.9H310.5V5.9H316V14.9H323.2V19.9H316V34.9C316 38.1 317.3 39.7 320 39.7C321 39.7 321.8 39.5 322.5 39.2L324.4 43.9C323.1 44.5 321.6 44.7 319.9 44.7Z" fill="white"/>
<path opacity="0.54" d="M377.3 44.2H371.7L364.4 21.6L357.1 44.2H351.5L342 14.8H347.8L354.3 37H354.4L361.7 14.8H367.4L374.7 37H374.8L381.3 14.8H386.9L377.3 44.2Z" fill="white"/>
<path opacity="0.54" d="M397.1 7.5C396.3 8.3 395.4 8.6 394.3 8.6C393.2 8.6 392.3 8.2 391.5 7.5C390.7 6.7 390.4 5.8 390.4 4.7C390.4 3.6 390.8 2.7 391.5 1.9C392.3 1.1 393.2 0.800003 394.3 0.800003C395.4 0.800003 396.3 1.2 397.1 1.9C397.9 2.7 398.2 3.6 398.2 4.7C398.2 5.8 397.8 6.7 397.1 7.5ZM397.1 44.2H391.6V14.8H397.1V44.2Z" fill="white"/>
<path opacity="0.54" d="M417 44.7C413.9 44.7 411.6 43.9 410 42.2C408.4 40.6 407.6 38.2 407.6 35.2V19.9H402.4V14.9H407.6V5.9H413.1V14.9H420.3V19.9H413V34.9C413 38.1 414.3 39.7 417 39.7C418 39.7 418.8 39.5 419.5 39.2L421.4 43.9C420.2 44.5 418.8 44.7 417 44.7Z" fill="white"/>
<path opacity="0.54" d="M431.7 1.3V14.9L431.5 19H431.7C432.5 17.6 433.8 16.4 435.5 15.4C437.2 14.4 439.1 13.9 441 13.9C444.6 13.9 447.4 15 449.3 17.3C451.2 19.5 452.2 22.5 452.2 26.3V44.3H446.7V27.1C446.7 21.7 444.3 18.9 439.4 18.9C437.1 18.9 435.3 19.8 433.8 21.6C432.4 23.4 431.6 25.5 431.6 27.9V44.2H426.1V1.2H431.7V1.3Z" fill="white"/>
<defs>
<linearGradient id="paint0_linear" x1="28.8537" y1="63.9726" x2="162.541" y2="197.66" gradientUnits="userSpaceOnUse">
<stop stop-color="white" stop-opacity="0.1"/>
<stop offset="1" stop-color="white" stop-opacity="0"/>
</linearGradient>
</defs>
</svg>
