<svg width="748" height="222" viewBox="0 0 748 222" fill="none" xmlns="http://www.w3.org/2000/svg">
<g clip-path="url(#clip0)">
<path fill-rule="evenodd" clip-rule="evenodd" d="M118.008 25.4205L163.754 51.7418C165.074 50.3492 166.59 49.154 168.254 48.1932C177.741 42.7579 189.842 45.985 195.352 55.4399C200.807 64.8948 197.568 76.9532 188.081 82.4449C186.429 83.3925 184.65 84.0985 182.797 84.5413V137.203C184.63 137.647 186.39 138.348 188.024 139.286C197.568 144.778 200.807 156.837 195.296 166.292C189.842 175.746 177.684 178.973 168.196 173.538C166.358 172.487 164.702 171.148 163.293 169.571L117.825 195.731C118.491 197.74 118.829 199.842 118.827 201.958C118.827 212.828 109.965 221.717 99 221.717C88.0349 221.717 79.1729 212.885 79.1729 201.958C79.1729 200.016 79.4529 198.14 79.9749 196.368L34.2416 170.054C32.9354 171.419 31.4411 172.592 29.8036 173.538C20.2594 178.973 8.15818 175.746 2.70389 166.292C-2.74961 156.837 0.488768 144.778 9.97575 139.286C11.6101 138.348 13.37 137.646 15.2026 137.203V84.5413C13.3498 84.0985 11.5705 83.3925 9.91929 82.4449C0.431534 77.0103 -2.80685 64.8948 2.64743 55.4399C8.10171 45.985 20.2586 42.7579 29.7464 48.1932C31.4008 49.1489 32.909 50.3364 34.2246 51.7195L79.9835 25.3912C79.444 23.5667 79.1711 21.6744 79.1729 19.7724C79.1729 8.84691 88.0349 0.0140381 99 0.0140381C109.965 0.0140381 118.827 8.84614 118.827 19.7724C118.827 21.7363 118.541 23.6316 118.008 25.4205ZM113.242 33.5304L159.097 59.9134C158.367 62.4569 158.157 65.1208 158.481 67.7466C158.805 70.3724 159.655 72.9066 160.982 75.1982C163.773 80.037 168.32 83.2449 173.367 84.4951V137.223C173.109 137.285 172.853 137.354 172.599 137.426L112.709 34.0583C112.89 33.8857 113.068 33.71 113.242 33.5311V33.5304ZM85.3032 34.0699L25.4143 137.436C25.1554 137.361 24.8949 137.292 24.6332 137.228V84.4951C29.6798 83.2449 34.2269 80.037 37.0182 75.1982C38.3473 72.9021 39.1985 70.3627 39.521 67.7316C39.8435 65.1004 39.6307 62.4315 38.8954 59.8841L84.737 33.5088C84.9219 33.6992 85.1106 33.8865 85.3032 34.0691V34.0699ZM104.54 38.7523L164.415 142.095C163.043 143.399 161.868 144.894 160.924 146.533C159.983 148.161 159.28 149.915 158.835 151.741H39.1668C38.7211 149.915 38.0169 148.161 37.0755 146.533C36.1288 144.905 34.9554 143.42 33.5903 142.121L93.4768 38.7569C95.2723 39.2721 97.1316 39.5326 99 39.5307C100.924 39.5307 102.782 39.2594 104.54 38.7523ZM113.663 188.647L159.22 162.436C159.083 162.008 158.961 161.575 158.854 161.139H39.1413C39.0779 161.396 39.0091 161.65 38.9356 161.904L84.7153 188.244C86.564 186.329 88.7826 184.806 91.2376 183.767C93.6925 182.728 96.3329 182.195 99 182.2C101.76 182.195 104.491 182.766 107.016 183.877C109.542 184.987 111.806 186.612 113.663 188.647V188.647Z" fill="#E535AB"/>
</g>
<path d="M286.478 68.917C292.672 68.917 298.151 70.4746 302.913 73.5898C307.675 76.6693 311.167 81.2168 313.387 87.2324L306.834 90.1328C303.146 80.1784 296.342 75.2012 286.424 75.2012C277.651 75.2012 271.277 78.1016 267.303 83.9023C263.328 89.7031 261.341 98.4938 261.341 110.274C261.341 115.825 261.753 120.641 262.576 124.723C263.436 128.769 264.796 132.26 266.658 135.196C268.52 138.132 271.027 140.335 274.178 141.803C277.329 143.271 281.142 144.005 285.618 144.005C287.946 144.005 290.273 143.629 292.601 142.877C294.964 142.089 297.184 140.961 299.261 139.493C301.338 137.989 303.021 136.002 304.31 133.531C305.634 131.025 306.297 128.232 306.297 125.152V113.336H286.316V106.622H314.031V117.794L313.494 149H308.499L306.78 138.741C304.739 142.143 301.731 144.918 297.757 147.066C293.818 149.215 289.45 150.289 284.651 150.289C263.632 150.289 253.123 136.933 253.123 110.221C253.123 102.988 253.911 96.7035 255.486 91.3682C257.062 86.0329 259.318 81.736 262.254 78.4775C265.226 75.2191 268.717 72.82 272.728 71.2803C276.738 69.7048 281.321 68.917 286.478 68.917ZM334.764 94.0537V104.366C335.766 101.896 337.216 99.8545 339.114 98.2432C341.012 96.596 342.946 95.486 344.915 94.9131C346.92 94.3044 349.015 94 351.199 94V100.929C348.227 100.929 345.649 101.466 343.465 102.54C341.316 103.614 339.633 105.1 338.416 106.998C337.234 108.896 336.357 110.955 335.784 113.175C335.247 115.395 334.979 117.812 334.979 120.426V149H327.352V94.0537H334.764ZM392.234 137.237C386.04 142.465 380.096 145.079 374.402 145.079C367.599 145.079 364.197 141.642 364.197 134.767C364.197 133.442 364.394 132.278 364.788 131.275C365.182 130.273 365.844 129.396 366.775 128.644C367.742 127.856 368.781 127.193 369.891 126.656C371.001 126.083 372.522 125.564 374.456 125.099C376.39 124.597 378.252 124.186 380.042 123.863C381.832 123.505 384.142 123.111 386.971 122.682L392.234 121.876V137.237ZM393.577 149H399.861V112.853C399.861 99.568 393.13 92.9258 379.666 92.9258C370.464 92.9258 363.66 95.7188 359.256 101.305C362.299 104.169 363.821 105.619 363.821 105.655C365.612 103.435 367.85 101.734 370.535 100.553C373.257 99.3711 376.157 98.7803 379.236 98.7803C383.963 98.7803 387.311 99.9082 389.28 102.164C391.25 104.384 392.234 108.484 392.234 114.464V116.72L386.917 117.525C383.802 117.991 381.474 118.367 379.935 118.653C378.395 118.904 376.354 119.316 373.812 119.889C371.269 120.426 369.354 120.963 368.064 121.5C366.811 122.001 365.343 122.717 363.66 123.648C361.977 124.544 360.742 125.546 359.954 126.656C359.166 127.73 358.468 129.055 357.859 130.631C357.286 132.171 357 133.907 357 135.841C357 140.424 358.522 143.987 361.565 146.529C364.645 149.036 368.476 150.289 373.06 150.289C380.006 150.289 386.541 147.783 392.664 142.77L393.577 149ZM451.263 121.017C451.263 128.465 449.992 134.265 447.449 138.419C444.907 142.573 441.416 144.649 436.976 144.649C426.627 144.649 421.453 136.808 421.453 121.124C421.453 118.51 421.543 116.218 421.722 114.249C421.937 112.244 422.366 110.221 423.011 108.18C423.655 106.103 424.515 104.402 425.589 103.077C426.699 101.716 428.203 100.624 430.101 99.8008C432.034 98.9414 434.308 98.5117 436.922 98.5117C441.362 98.5117 444.853 100.589 447.396 104.742C449.974 108.86 451.263 114.285 451.263 121.017ZM420.54 94.0537H413.987V167.799H421.614V147.872V140.729C423.19 143.808 425.392 146.171 428.221 147.818C431.085 149.465 434.38 150.289 438.104 150.289C442.723 150.253 446.626 148.91 449.812 146.261C452.999 143.611 455.327 140.156 456.795 135.895C458.263 131.598 458.997 126.656 458.997 121.07C458.997 117.06 458.567 113.39 457.708 110.06C456.884 106.694 455.631 103.722 453.948 101.144C452.265 98.5654 450.027 96.5602 447.234 95.1279C444.477 93.6598 441.308 92.9258 437.728 92.9258C430.172 92.9258 424.622 96.2559 421.077 102.916L420.54 94.0537ZM496.326 98.5117C493.676 98.5117 491.313 98.9593 489.236 99.8545C487.195 100.75 485.512 101.949 484.188 103.453C482.863 104.921 481.771 106.729 480.911 108.878C480.052 110.991 479.443 113.211 479.085 115.538C478.763 117.866 478.602 120.372 478.602 123.058V149H470.975V69.8838H478.602V92.4424V102.701C482.791 96.1842 489.075 92.9258 497.454 92.9258C499.889 92.9258 502.073 93.2122 504.007 93.7852C505.976 94.3223 507.605 95.0384 508.895 95.9336C510.219 96.8288 511.365 97.9567 512.332 99.3174C513.299 100.678 514.051 102.039 514.588 103.399C515.125 104.76 515.555 106.336 515.877 108.126C516.199 109.881 516.396 111.474 516.468 112.906C516.575 114.339 516.629 115.932 516.629 117.687V149H509.002V117.096C509.002 110.973 508.053 106.354 506.155 103.238C504.293 100.087 501.017 98.5117 496.326 98.5117ZM591.18 167.53L577.752 147.389C576.284 148.069 574.708 148.624 573.025 149.054C571.342 149.483 569.588 149.806 567.762 150.021C565.936 150.235 564.002 150.343 561.961 150.343C556.697 150.343 552.096 149.591 548.157 148.087C544.218 146.583 540.817 144.22 537.952 140.997C535.088 137.774 532.921 133.513 531.453 128.214C530.021 122.914 529.305 116.594 529.305 109.254C529.305 102.092 530.039 95.9157 531.507 90.7236C533.011 85.4958 535.195 81.3063 538.06 78.1553C540.924 74.9684 544.326 72.641 548.265 71.1729C552.239 69.6689 556.823 68.917 562.015 68.917C567.243 68.917 571.826 69.6689 575.765 71.1729C579.739 72.6768 583.177 75.0042 586.077 78.1553C588.978 81.3063 591.162 85.4958 592.63 90.7236C594.134 95.9157 594.886 102.075 594.886 109.2C594.886 125.922 590.965 137.506 583.123 143.951L596.98 163.126L591.18 167.53ZM561.961 75.2012C558.237 75.2012 554.961 75.7204 552.132 76.7588C549.339 77.7972 547.011 79.2653 545.149 81.1631C543.323 83.0251 541.837 85.3883 540.691 88.2529C539.546 91.1175 538.722 94.2507 538.221 97.6523C537.755 101.018 537.522 104.868 537.522 109.2C537.522 121.267 539.384 130.094 543.108 135.68C546.832 141.23 553.134 144.005 562.015 144.005C570.931 144.005 577.251 141.248 580.975 135.733C584.699 130.219 586.561 121.393 586.561 109.254C586.561 104.921 586.31 101.054 585.809 97.6523C585.343 94.2507 584.52 91.1175 583.338 88.2529C582.192 85.3883 580.688 83.0251 578.826 81.1631C576.964 79.2653 574.619 77.7972 571.79 76.7588C568.997 75.7204 565.721 75.2012 561.961 75.2012ZM656.976 149H609.012V70.3672H616.854V142.931H656.976V149Z" fill="white"/>
<defs>
<clipPath id="clip0">
<rect width="198" height="222" fill="white"/>
</clipPath>
</defs>
</svg>
