<svg width="680" height="192" viewBox="0 0 680 192" fill="none" xmlns="http://www.w3.org/2000/svg">
<path d="M625.606 68.3401C623.954 68.3401 622.347 68.6804 620.925 69.4828L575.918 95.3962C573.005 97.0699 571.235 100.229 571.235 103.591V155.324C571.235 158.683 573.005 161.839 575.918 163.516L587.672 170.281C593.383 173.087 595.488 173.044 598.087 173.044C606.541 173.044 611.369 167.928 611.369 159.04V107.973C611.369 107.251 610.742 106.735 610.032 106.735H604.394C603.671 106.735 603.056 107.251 603.056 107.973V159.04C603.056 162.979 598.939 166.942 592.259 163.612L580.027 156.467C579.594 156.232 579.262 155.818 579.262 155.324V103.59C579.262 103.1 579.59 102.601 580.027 102.352L624.938 76.5352C625.141 76.417 625.372 76.3547 625.607 76.3547C625.842 76.3547 626.073 76.417 626.276 76.5352L671.188 102.353C671.616 102.61 671.953 103.085 671.953 103.593V155.325C671.953 155.819 671.704 156.325 671.284 156.563L626.276 182.381C625.891 182.61 625.359 182.61 624.938 182.381L613.376 175.522C613.2 175.427 613.003 175.377 612.803 175.377C612.603 175.377 612.406 175.427 612.23 175.522C609.038 177.326 608.438 177.535 605.444 178.571C604.707 178.827 603.588 179.226 605.827 180.477L620.925 189.336C622.348 190.155 623.964 190.582 625.608 190.575C627.251 190.585 628.867 190.158 630.289 189.337L675.298 163.518C678.21 161.829 679.979 158.685 679.979 155.325V103.591C679.979 100.231 678.21 97.0765 675.298 95.3988L630.289 69.4855C628.879 68.6817 627.261 68.3414 625.608 68.3414L625.606 68.3401Z" fill="#83CD29"/>
<path d="M637.647 105.306C624.831 105.306 617.198 110.744 617.198 119.788C617.198 129.597 624.774 132.293 637.075 133.506C651.79 134.943 652.936 137.097 652.936 139.985C652.936 144.994 648.931 147.13 639.464 147.13C627.568 147.13 624.954 144.169 624.079 138.27C623.975 137.638 623.485 137.126 622.836 137.126H617.007C616.29 137.126 615.669 137.743 615.669 138.461C615.669 146.013 619.789 154.943 639.464 154.943C653.705 154.943 661.919 149.369 661.919 139.604C661.919 129.924 655.284 127.325 641.469 125.504C627.511 123.663 626.18 122.761 626.18 119.502C626.18 116.811 627.309 113.212 637.647 113.212C646.883 113.212 650.296 115.199 651.694 121.408C651.817 121.99 652.332 122.455 652.936 122.455H658.767C659.125 122.455 659.473 122.235 659.721 121.978C659.966 121.704 660.138 121.396 660.104 121.026C659.201 110.335 652.05 105.306 637.647 105.306V105.306Z" fill="#83CD29"/>
<path d="M361.008 0.507085C360.505 0.507418 360.011 0.638393 359.574 0.887112C359.14 1.14038 358.779 1.50204 358.528 1.93647C358.277 2.37089 358.143 2.86309 358.141 3.36457V76.2478C358.141 76.9628 357.807 77.6037 357.186 77.9625C356.881 78.1394 356.535 78.2326 356.183 78.2326C355.83 78.2326 355.484 78.1394 355.179 77.9625L343.234 71.1035C342.363 70.6009 341.374 70.3362 340.367 70.3362C339.361 70.3362 338.372 70.6009 337.501 71.1035L289.818 98.5409C288.035 99.5672 286.952 101.539 286.952 103.591V158.467C286.952 160.517 288.037 162.395 289.818 163.421L337.501 190.86C338.372 191.364 339.361 191.629 340.367 191.629C341.374 191.629 342.363 191.364 343.234 190.86L390.917 163.421C391.79 162.92 392.515 162.198 393.019 161.328C393.522 160.459 393.786 159.472 393.785 158.467V21.6575C393.783 20.6298 393.509 19.6207 392.988 18.7335C392.468 17.8462 391.721 17.1125 390.823 16.6073L362.441 0.791774C361.996 0.544161 361.502 0.500464 361.008 0.507085V0.507085ZM54.2679 69.0074C53.3595 69.0431 52.5042 69.202 51.6887 69.6734L4.00424 97.1122C3.13076 97.6125 2.40555 98.3343 1.9022 99.2042C1.39884 100.074 1.13526 101.061 1.13818 102.066L1.2338 175.713C1.2338 176.737 1.76372 177.689 2.66683 178.189C3.09981 178.449 3.59541 178.586 4.10053 178.586C4.60565 178.586 5.10125 178.449 5.53422 178.189L33.819 161.994C35.6106 160.932 36.7807 159.086 36.7807 157.039V122.646C36.7807 120.593 37.8631 118.71 39.6481 117.691L51.6874 110.736C52.5579 110.232 53.5479 109.968 54.5548 109.974C55.5376 109.974 56.5469 110.219 57.4208 110.736L69.4615 117.691C70.3358 118.19 71.0617 118.912 71.5653 119.783C72.069 120.653 72.3324 121.641 72.3289 122.646V157.037C72.3289 159.085 73.5109 160.944 75.2906 161.992L103.575 178.189C104.008 178.449 104.504 178.586 105.009 178.586C105.514 178.586 106.01 178.449 106.443 178.189C106.879 177.938 107.24 177.576 107.492 177.142C107.744 176.707 107.877 176.214 107.877 175.712L107.97 102.066C107.976 101.061 107.713 100.073 107.21 99.2022C106.706 98.3317 105.979 97.6104 105.104 97.1122L57.4208 69.6734C56.6147 69.202 55.7567 69.0445 54.8416 69.0074H54.2679ZM482.748 69.6734C481.752 69.6734 480.776 69.925 479.882 70.4361L432.199 97.8749C431.326 98.3757 430.601 99.0975 430.097 99.9673C429.594 100.837 429.33 101.824 429.332 102.829V157.705C429.332 159.769 430.498 161.639 432.293 162.66L479.595 189.526C481.342 190.52 483.475 190.595 485.233 189.619L513.9 173.71C514.81 173.206 515.425 172.266 515.429 171.233C515.434 170.731 515.304 170.235 515.052 169.8C514.8 169.364 514.435 169.004 513.996 168.756L466.026 141.317C465.128 140.806 464.497 139.772 464.497 138.744V121.597C464.497 120.571 465.135 119.63 466.026 119.119L480.933 110.544C481.368 110.293 481.863 110.16 482.366 110.16C482.87 110.16 483.364 110.293 483.8 110.544L498.705 119.119C499.142 119.37 499.505 119.73 499.757 120.165C500.009 120.6 500.141 121.093 500.14 121.596V135.124C500.138 135.626 500.27 136.12 500.522 136.555C500.774 136.99 501.136 137.35 501.573 137.6C502.467 138.115 503.548 138.117 504.439 137.6L533.012 121.026C533.883 120.523 534.607 119.801 535.11 118.931C535.614 118.062 535.879 117.075 535.879 116.071V102.83C535.879 100.784 534.79 98.9024 533.012 97.8749L485.616 70.4361C484.744 69.9336 483.755 69.6709 482.748 69.6747V69.6734ZM340.176 110.641C340.425 110.641 340.717 110.702 340.941 110.83L357.282 120.262C357.725 120.518 358.047 120.99 358.047 121.5V140.364C358.047 140.876 357.728 141.348 357.282 141.603L340.941 151.035C340.722 151.159 340.475 151.225 340.224 151.225C339.973 151.225 339.726 151.159 339.507 151.035L323.168 141.603C322.723 141.346 322.403 140.876 322.403 140.364V121.5C322.403 120.989 322.724 120.52 323.168 120.262L339.507 110.832C339.708 110.707 339.94 110.641 340.177 110.642V110.641H340.176Z" fill="white"/>
<path d="M197.509 69.3875C196.515 69.3875 195.532 69.6391 194.643 70.1502L146.959 97.4936C145.176 98.5172 144.092 100.493 144.092 102.543V157.419C144.092 159.471 145.177 161.346 146.959 162.374L194.643 189.811C195.513 190.315 196.502 190.581 197.509 190.581C198.516 190.581 199.505 190.315 200.376 189.811L248.059 162.374C248.932 161.872 249.657 161.15 250.16 160.28C250.663 159.41 250.927 158.423 250.925 157.419V102.543C250.925 100.49 249.841 98.5172 248.059 97.4936L200.376 70.1502C199.504 69.6483 198.515 69.3851 197.509 69.3875V69.3875ZM482.653 118.358C482.463 118.358 482.251 118.358 482.08 118.453L472.907 123.788C472.736 123.883 472.593 124.021 472.492 124.188C472.391 124.356 472.337 124.547 472.333 124.742V135.221C472.333 135.616 472.562 135.977 472.907 136.174L482.08 141.414C482.424 141.613 482.791 141.613 483.131 141.414L492.304 136.173C492.474 136.078 492.617 135.94 492.718 135.773C492.818 135.606 492.873 135.416 492.878 135.221V124.74C492.873 124.546 492.818 124.355 492.718 124.188C492.617 124.022 492.474 123.884 492.304 123.788L483.131 118.452C482.961 118.353 482.844 118.359 482.653 118.359V118.358Z" fill="#83CD29"/>
</svg>
