<svg width="631" height="199" viewBox="0 0 520 199" fill="none" xmlns="http://www.w3.org/2000/svg">
<path d="M256.759 107.364H238.39V139H228.023V60.7969H253.912C262.721 60.7969 269.488 62.8021 274.215 66.8125C278.977 70.8229 281.358 76.6595 281.358 84.3223C281.358 89.1921 280.034 93.4352 277.384 97.0518C274.77 100.668 271.118 103.372 266.427 105.162L284.796 138.355V139H273.731L256.759 107.364ZM238.39 98.9316H254.234C259.355 98.9316 263.419 97.6068 266.427 94.957C269.47 92.3073 270.992 88.7624 270.992 84.3223C270.992 79.4883 269.542 75.7822 266.642 73.2041C263.777 70.626 259.623 69.319 254.181 69.2832H238.39V98.9316ZM318.419 140.074C310.541 140.074 304.132 137.496 299.19 132.34C294.249 127.148 291.778 120.219 291.778 111.554V109.728C291.778 103.963 292.87 98.8242 295.055 94.3125C297.275 89.765 300.354 86.2201 304.293 83.6777C308.268 81.0996 312.564 79.8105 317.184 79.8105C324.739 79.8105 330.611 82.2992 334.801 87.2764C338.99 92.2536 341.085 99.3792 341.085 108.653V112.789H301.715C301.858 118.518 303.523 123.155 306.71 126.7C309.933 130.209 314.015 131.964 318.956 131.964C322.465 131.964 325.437 131.248 327.872 129.815C330.307 128.383 332.438 126.485 334.264 124.122L340.333 128.849C335.463 136.332 328.159 140.074 318.419 140.074ZM317.184 87.9746C313.173 87.9746 309.807 89.4427 307.086 92.3789C304.365 95.2793 302.682 99.3613 302.037 104.625H331.148V103.873C330.862 98.8242 329.501 94.9212 327.066 92.1641C324.632 89.3711 321.337 87.9746 317.184 87.9746ZM388.512 139C387.939 137.854 387.473 135.813 387.115 132.877C382.496 137.675 376.982 140.074 370.572 140.074C364.843 140.074 360.134 138.463 356.446 135.24C352.794 131.982 350.968 127.864 350.968 122.887C350.968 116.835 353.259 112.145 357.843 108.814C362.462 105.449 368.943 103.766 377.286 103.766H386.954V99.2002C386.954 95.7269 385.916 92.9697 383.839 90.9287C381.762 88.8519 378.701 87.8135 374.654 87.8135C371.109 87.8135 368.137 88.7087 365.738 90.499C363.339 92.2894 362.14 94.4557 362.14 96.998H352.149C352.149 94.0977 353.17 91.3047 355.211 88.6191C357.288 85.8978 360.081 83.7493 363.59 82.1738C367.135 80.5983 371.02 79.8105 375.245 79.8105C381.941 79.8105 387.187 81.4935 390.982 84.8594C394.778 88.1895 396.747 92.7907 396.891 98.6631V125.411C396.891 130.746 397.571 134.99 398.932 138.141V139H388.512ZM372.022 131.427C375.138 131.427 378.092 130.621 380.885 129.01C383.678 127.398 385.701 125.304 386.954 122.726V110.802H379.166C366.992 110.802 360.904 114.365 360.904 121.49C360.904 124.605 361.943 127.04 364.02 128.795C366.096 130.549 368.764 131.427 372.022 131.427ZM435.777 131.964C439.322 131.964 442.42 130.89 445.069 128.741C447.719 126.593 449.187 123.907 449.474 120.685H458.873C458.694 124.015 457.548 127.184 455.436 130.191C453.323 133.199 450.494 135.598 446.949 137.389C443.44 139.179 439.716 140.074 435.777 140.074C427.864 140.074 421.562 137.442 416.871 132.179C412.216 126.879 409.889 119.646 409.889 110.479V108.814C409.889 103.157 410.927 98.126 413.004 93.7217C415.081 89.3174 418.053 85.8978 421.92 83.4629C425.823 81.028 430.424 79.8105 435.724 79.8105C442.241 79.8105 447.647 81.762 451.944 85.665C456.277 89.568 458.587 94.6348 458.873 100.865H449.474C449.187 97.1055 447.755 94.026 445.177 91.627C442.634 89.1921 439.483 87.9746 435.724 87.9746C430.675 87.9746 426.754 89.8008 423.961 93.4531C421.204 97.0697 419.825 102.315 419.825 109.19V111.07C419.825 117.766 421.204 122.923 423.961 126.539C426.718 130.156 430.657 131.964 435.777 131.964ZM483.526 66.8125V80.8848H494.376V88.5654H483.526V124.605C483.526 126.933 484.01 128.688 484.977 129.869C485.943 131.015 487.59 131.588 489.918 131.588C491.064 131.588 492.639 131.373 494.645 130.943V139C492.031 139.716 489.488 140.074 487.018 140.074C482.577 140.074 479.229 138.731 476.974 136.046C474.718 133.36 473.59 129.547 473.59 124.605V88.5654H463.009V80.8848H473.59V66.8125H483.526Z" fill="white"/>
<path d="M122.277 116.506C109.7 138.29 94.7372 155.731 80.8613 166.366C73.9156 171.69 67.4059 175.182 61.7423 176.758C56.0971 178.33 51.6182 177.924 48.2408 175.974C44.8634 174.024 42.2727 170.348 40.8108 164.674C39.3441 158.981 39.1137 151.597 40.2511 142.92C42.5233 125.586 50.1463 103.907 62.7233 82.1233C75.3003 60.3393 90.2628 42.8984 104.139 32.2634C111.084 26.94 117.594 23.4477 123.258 21.8714C128.903 20.3001 133.382 20.7058 136.759 22.6557C140.137 24.6056 142.727 28.2817 144.189 33.9562C145.656 39.6492 145.886 47.0329 144.749 55.7098C142.477 73.0442 134.854 94.7224 122.277 116.506Z" stroke="#53C1DE" stroke-width="8"/>
<path d="M122.277 82.1233C134.854 103.907 142.477 125.586 144.749 142.92C145.886 151.597 145.656 158.981 144.189 164.674C142.727 170.348 140.137 174.024 136.759 175.974C133.382 177.924 128.903 178.33 123.258 176.758C117.594 175.182 111.084 171.69 104.139 166.366C90.2628 155.731 75.3003 138.291 62.7233 116.506C50.1463 94.7224 42.5233 73.0442 40.2511 55.7098C39.1137 47.0329 39.3441 39.6492 40.8108 33.9562C42.2727 28.2817 44.8634 24.6056 48.2408 22.6557C51.6182 20.7058 56.0971 20.3001 61.7423 21.8714C67.4059 23.4477 73.9156 26.94 80.8613 32.2635C94.7372 42.8985 109.7 60.3393 122.277 82.1233Z" stroke="#53C1DE" stroke-width="8"/>
<path d="M92.5184 65C117.672 65 140.258 69.2374 156.406 75.9368C164.489 79.2902 170.768 83.1817 174.965 87.2983C179.149 91.4016 181.037 95.4833 181.037 99.3831C181.037 103.283 179.149 107.365 174.965 111.468C170.768 115.585 164.489 119.476 156.406 122.829C140.258 129.529 117.672 133.766 92.5184 133.766C67.3644 133.766 44.779 129.529 28.6308 122.829C20.5478 119.476 14.2685 115.585 10.0715 111.468C5.88817 107.365 4 103.283 4 99.3831C4 95.4833 5.88817 91.4016 10.0715 87.2983C14.2685 83.1817 20.5478 79.2902 28.6308 75.9368C44.779 69.2374 67.3644 65 92.5184 65Z" stroke="#53C1DE" stroke-width="8"/>
<path d="M92.4719 83C101.57 83 108.944 90.3843 108.944 99.4925C108.944 108.602 101.57 115.986 92.4719 115.986C83.3751 115.986 76 108.602 76 99.4925C76 90.3843 83.3751 83 92.4719 83" fill="#53C1DE"/>
</svg>
