<svg width="519" height="139" viewBox="0 0 519 139" fill="none" xmlns="http://www.w3.org/2000/svg">
<path d="M172.39 100.41C167.531 100.533 162.748 99.184 158.67 96.54C154.864 94.0268 152.039 90.2803 150.67 85.93L159 82.86C160.157 85.5308 162.046 87.8192 164.45 89.46C166.893 91.0972 169.78 91.9453 172.72 91.89C175.544 92.0386 178.331 91.1968 180.6 89.51C181.587 88.6801 182.366 87.6315 182.876 86.4476C183.387 85.2637 183.614 83.9771 183.54 82.69C183.552 81.4915 183.274 80.3078 182.73 79.24C182.258 78.284 181.641 77.4069 180.9 76.64C179.96 75.7851 178.894 75.0801 177.74 74.55C176.32 73.84 175.15 73.3 174.21 72.93C173.27 72.56 171.89 72.06 170.08 71.44C167.8 70.64 166.08 70.02 164.96 69.56C163.422 68.9094 161.929 68.1578 160.49 67.31C158.936 66.4879 157.525 65.4209 156.31 64.15C155.263 62.9069 154.42 61.5063 153.81 60C152.632 57.1354 152.384 53.9729 153.102 50.9599C153.82 47.9469 155.467 45.2358 157.81 43.21C161.223 40.2033 165.853 38.7 171.7 38.7C176.593 38.7 180.613 39.7767 183.76 41.93C186.824 43.9637 189.072 47.0124 190.11 50.54L181.93 53.27C181.096 51.4195 179.695 49.8821 177.93 48.88C175.812 47.7136 173.416 47.1466 171 47.24C168.624 47.102 166.27 47.76 164.31 49.11C163.51 49.7312 162.872 50.5368 162.451 51.4579C162.029 52.379 161.837 53.3884 161.89 54.4C161.897 55.1748 162.067 55.9394 162.39 56.6441C162.712 57.3487 163.179 57.9777 163.76 58.49C164.894 59.6021 166.223 60.4969 167.68 61.13C169.04 61.7 171.12 62.46 173.9 63.43C175.6 64.06 176.9 64.52 177.69 64.84C178.48 65.16 179.69 65.67 181.31 66.41C182.585 66.9763 183.813 67.6451 184.98 68.41C186.025 69.1631 187.026 69.9744 187.98 70.84C189.006 71.7327 189.883 72.7824 190.58 73.95C191.244 75.1632 191.758 76.4527 192.11 77.79C192.547 79.3556 192.762 80.9747 192.75 82.6C192.75 88.1733 190.847 92.5333 187.04 95.68C183.233 98.8267 178.35 100.403 172.39 100.41ZM227.01 99.41L206.56 39.74H216.1L229.65 81.32C230.398 83.5582 231.025 85.8348 231.53 88.14C232.026 85.8337 232.65 83.5568 233.4 81.32L246.78 39.74H256.24L235.87 99.39L227.01 99.41ZM274.3 99.41V39.74H311.3V48.09H283.17V64.45H301.32V72.8H283.17V91H313.17V99.35L274.3 99.41ZM335.74 99.41V39.74H344.61V90.87H373.75V99.39L335.74 99.41ZM407.15 48.28V99.39H398.29V48.26H381.42V39.74H424V48.26L407.15 48.28ZM442.35 99.41V39.74H479.35V48.09H451.21V64.45H469.36V72.8H451.21V91H481.21V99.35L442.35 99.41Z" fill="white"/>
<path d="M110.23 28.39C99.83 13.51 79.29 9.1 64.44 18.56L38.36 35.18C34.84 37.3908 31.8197 40.3112 29.4918 43.7549C27.1639 47.1985 25.5796 51.0897 24.84 55.18C23.5929 62.0837 24.6837 69.2061 27.94 75.42C25.7083 78.8055 24.1875 82.6091 23.47 86.6C22.7251 90.7807 22.8235 95.0682 23.7595 99.2103C24.6954 103.352 26.45 107.266 28.92 110.72C39.32 125.6 59.86 130.01 74.71 120.55L100.79 104C104.306 101.785 107.323 98.8628 109.651 95.42C111.978 91.9771 113.565 88.0883 114.31 84C115.553 77.0985 114.458 69.9796 111.2 63.77C113.431 60.3828 114.954 56.5802 115.68 52.59C116.423 48.4092 116.323 44.1222 115.387 39.9804C114.451 35.8386 112.698 31.9253 110.23 28.47" fill="#FF3E00"/>
<path d="M61.89 112.16C57.7842 113.225 53.4503 113.006 49.4734 111.53C45.4964 110.055 42.0677 107.395 39.65 103.91C38.1655 101.833 37.1115 99.4806 36.5499 96.9904C35.9883 94.5002 35.9306 91.9228 36.38 89.41C36.5275 88.5926 36.7347 87.7871 37 87L37.49 85.5L38.83 86.5C41.9101 88.7486 45.3487 90.4595 49 91.56L50 91.85L49.91 92.85C49.8138 94.2211 50.1993 95.5828 51 96.7C51.7295 97.7485 52.7628 98.5483 53.9607 98.9917C55.1586 99.4351 56.4636 99.5008 57.7 99.18C58.2653 99.028 58.8047 98.7921 59.3 98.48L85.34 81.86C85.9795 81.4576 86.5279 80.9259 86.9498 80.299C87.3717 79.6721 87.6579 78.964 87.79 78.22C87.9233 77.4617 87.9035 76.6844 87.7317 75.9339C87.56 75.1834 87.2398 74.4748 86.79 73.85C86.0605 72.8015 85.0272 72.0017 83.8293 71.5583C82.6314 71.1149 81.3264 71.0492 80.09 71.37C79.524 71.5201 78.9843 71.7561 78.49 72.07L68.49 78.42C66.8545 79.457 65.0707 80.2393 63.2 80.74C59.101 81.799 54.7759 81.577 50.8069 80.1038C46.8379 78.6306 43.4154 75.977 41 72.5C39.52 70.4213 38.4702 68.0679 37.9121 65.5779C37.354 63.0879 37.2989 60.5116 37.75 58C38.1916 55.5348 39.1428 53.1889 40.5427 51.1123C41.9426 49.0357 43.7604 47.274 45.88 45.94L72 29.32C73.6259 28.285 75.3994 27.5028 77.26 27C81.3643 25.9339 85.697 26.1533 89.6725 27.6287C93.6481 29.1041 97.0749 31.7644 99.49 35.25C100.976 37.326 102.032 39.6783 102.595 42.1685C103.159 44.6587 103.218 47.2365 102.77 49.75C102.614 50.5721 102.407 51.3837 102.15 52.18L101.65 53.68L100.32 52.68C97.2336 50.4142 93.7845 48.6897 90.12 47.58L89.12 47.29L89.21 46.29C89.3255 44.9121 88.95 43.5378 88.15 42.41C87.4159 41.3795 86.3855 40.597 85.1958 40.1665C84.0061 39.736 82.7135 39.6779 81.49 40C80.924 40.1501 80.3844 40.3861 79.89 40.7L53.8 57.29C53.1628 57.6927 52.616 58.2233 52.1943 58.8481C51.7726 59.4729 51.4851 60.1784 51.35 60.92C51.2193 61.6799 51.2403 62.4582 51.412 63.21C51.5836 63.9618 51.9024 64.6721 52.35 65.3C53.0762 66.339 54.1011 67.1326 55.2888 67.5755C56.4765 68.0184 57.7708 68.0898 59 67.78C59.5646 67.6259 60.1037 67.3901 60.6 67.08L70.6 60.74C72.2343 59.6916 74.0226 58.9054 75.9 58.41C80.0033 57.3414 84.3357 57.5586 88.3115 59.0323C92.2873 60.506 95.7146 63.1651 98.13 66.65C99.6152 68.7265 100.67 71.0789 101.234 73.5689C101.797 76.059 101.857 78.6365 101.41 81.15C100.968 83.6152 100.017 85.9611 98.6173 88.0377C97.2174 90.1143 95.3995 91.876 93.28 93.21L67.19 109.83C65.5514 110.87 63.7644 111.656 61.89 112.16" fill="white"/>
</svg>
